# xmcd
# 
# Track frame offsets:
#     150
#     41732
#     77762
#     101420
#     126600
#     162040
#     176570
#     192572
#     227565
#     248665
# 
# Disc length: 3612
# 
# Revision: 1
# Processed by: cddbd v1.5.2PL0 Copyright (c) Steve Scherf et al.
# Submitted via: BonkEnc v1.0.8
# 
DISCID=7f0e1a0a
DTITLE=Brink Man Ship [Jan Galega Brönnimann] - Elephant and Castle
DYEAR=2002
DGENRE=Future Jazz
TTITLE0=Lion
TTITLE1=Dwl
TTITLE2=Rimska 44
TTITLE3=T.C.
TTITLE4=Elephant And Castle
TTITLE5=13. Februar
TTITLE6=116 71 990
TTITLE7=Zelezna
TTITLE8=Haruki
TTITLE9=Remix
EXTD=YEAR: 2003
EXTT0=
EXTT1=
EXTT2=
EXTT3=
EXTT4=
EXTT5=
EXTT6=
EXTT7=
EXTT8=
EXTT9=
PLAYORDER=
